# xmcd CD database file
#
# Track frame offsets:
#	150
#	16082
#	28244
#	43760
#	59250
#	74698
#	91027
#	105210
#	120609
#	136008
#	151139
#
# Disc length: 2176 seconds
#
# Revision: 0
# Processed by: cddbd v1.5.1PL2 Copyright (c) Steve Scherf et al.
# Submitted via: CDex 1.51
#
DISCID=82087e0b
DTITLE=Catherine Britt - Demo 2005-11
DYEAR=2005
DGENRE=Country
TTITLE0=With This Ring
TTITLE1=I'm a Woman
TTITLE2=Don't Pay No Mind
TTITLE3=On My Knees Again
TTITLE4=Baby My Baby
TTITLE5=Singing For Daddy
TTITLE6=You've Got My Secrets
TTITLE7=Sweet Emmylou - Catherine Vocals
TTITLE8=Sweet Emmylou - Jamey Johnson Vocals
TTITLE9=Only a Scratch
TTITLE10=Mama Told Me Not To
EXTD=YEAR: 2005
EXTT0=
EXTT1=
EXTT2=
EXTT3=
EXTT4=
EXTT5=
EXTT6=
EXTT7=
EXTT8=
EXTT9=
EXTT10=
PLAYORDER=
